<mxfile host="app.diagrams.net" modified="2024-04-08T11:06:09.716Z" agent="Mozilla/5.0 (Macintosh; Intel Mac OS X 10_15_7) AppleWebKit/537.36 (KHTML, like Gecko) Chrome/123.0.0.0 Safari/537.36" version="24.2.2" etag="gzKBmfd9_u-M_AyUH6hu" type="github">
  <diagram name="Страница — 1" id="-b9v8CD24cUr2Heu3Pem">
    <mxGraphModel>
      <root>
        <mxCell id="0" />
        <mxCell id="1" parent="0" />
      </root>
    </mxGraphModel>
  </diagram>
</mxfile>
